<svg xmlns="http://www.w3.org/2000/svg" xmlns:xlink="http://www.w3.org/1999/xlink" width="960" zoomAndPan="magnify" viewBox="0 0 720 143.999998" height="192" preserveAspectRatio="xMidYMid meet" version="1.0"><defs><g/></defs><rect x="-72" width="864" fill="#01725A" y="-14.4" height="172.799997" fill-opacity="1"/><rect x="-72" width="864" fill="#01725A" y="-14.4" height="172.799997" fill-opacity="1"/><rect x="-72" width="864" fill="#01725A" y="-14.4" height="172.799997" fill-opacity="1"/><rect x="-72" width="864" fill="#01725A" y="-14.4" height="172.799997" fill-opacity="1"/><g fill="#ef8b00" fill-opacity="1"><g transform="translate(28.870682, 116.467698)"><g><path d="M 61.03125 0 L 61.03125 -4.484375 C 65.851562 -4.898438 68.710938 -5.296875 69.609375 -5.671875 C 70.503906 -6.046875 71.253906 -6.691406 71.859375 -7.609375 C 72.460938 -8.523438 72.765625 -9.894531 72.765625 -11.71875 L 72.765625 -43.265625 L 31.296875 -43.265625 L 31.296875 -12.53125 C 31.296875 -10 32.0625 -8.117188 33.59375 -6.890625 C 35.132812 -5.660156 38.191406 -4.859375 42.765625 -4.484375 L 42.765625 0 L 6.109375 0 L 6.109375 -4.484375 C 11.804688 -4.734375 15.210938 -5.503906 16.328125 -6.796875 C 17.453125 -8.085938 18.015625 -9.726562 18.015625 -11.71875 L 18.015625 -75.5625 C 18.015625 -80.550781 14.046875 -83.378906 6.109375 -84.046875 L 6.109375 -88.46875 L 42.765625 -88.46875 L 42.765625 -84.046875 C 38.398438 -83.671875 35.394531 -83.003906 33.75 -82.046875 C 32.113281 -81.085938 31.296875 -79.15625 31.296875 -76.25 L 31.296875 -48.75 L 72.765625 -48.75 L 72.765625 -75.5625 C 72.765625 -80.550781 68.851562 -83.378906 61.03125 -84.046875 L 61.03125 -88.46875 L 97.703125 -88.46875 L 97.703125 -84.046875 C 93.296875 -83.671875 90.25 -82.984375 88.5625 -81.984375 C 86.882812 -80.984375 86.046875 -79.070312 86.046875 -76.25 L 86.046875 -12.53125 C 86.046875 -9.914062 86.882812 -8.015625 88.5625 -6.828125 C 90.25 -5.640625 93.296875 -4.859375 97.703125 -4.484375 L 97.703125 0 Z M 61.03125 0 "/></g></g></g><g fill="#ef8b00" fill-opacity="1"><g transform="translate(150.401892, 116.467698)"><g><path d="M 87.71875 -84.046875 C 81.695312 -83.421875 77.675781 -81.113281 75.65625 -77.125 C 73.644531 -73.132812 63.203125 -47.050781 44.328125 1.125 L 39.21875 1.125 L 10.28125 -76.0625 C 8.164062 -80.925781 3.925781 -83.585938 -2.4375 -84.046875 L -2.4375 -88.46875 L 34.234375 -88.46875 L 34.234375 -84.046875 C 26.828125 -83.546875 23.125 -82.421875 23.125 -80.671875 C 23.125 -79.472656 30.734375 -58.710938 45.953125 -18.390625 C 51.234375 -31.109375 55.941406 -42.847656 60.078125 -53.609375 C 64.210938 -64.378906 66.554688 -70.789062 67.109375 -72.84375 C 67.671875 -74.90625 67.953125 -76.8125 67.953125 -78.5625 C 67.953125 -81.382812 63.566406 -83.210938 54.796875 -84.046875 L 54.796875 -88.46875 L 87.71875 -88.46875 Z M 87.71875 -84.046875 "/></g></g></g><g fill="#ef8b00" fill-opacity="1"><g transform="translate(253.045395, 116.467698)"><g><path d="M 73.5625 0 L 73.5625 -4.484375 C 77.84375 -4.859375 80.671875 -5.171875 82.046875 -5.421875 C 83.421875 -5.671875 84.644531 -6.4375 85.71875 -7.71875 C 86.800781 -9.007812 87.34375 -10.613281 87.34375 -12.53125 L 87.34375 -76.875 L 86.28125 -76.875 L 56.171875 -1.4375 L 53.125 -1.4375 L 24.25 -78.375 L 23.5 -78.375 L 23.5 -25.5625 C 23.5 -20.15625 23.925781 -15.84375 24.78125 -12.625 C 25.632812 -9.40625 27.804688 -7.273438 31.296875 -6.234375 C 34.785156 -5.191406 37.257812 -4.609375 38.71875 -4.484375 L 38.71875 0 L 2.9375 0 L 2.9375 -4.484375 C 9.332031 -5.023438 13.359375 -6.5 15.015625 -8.90625 C 16.679688 -11.320312 17.515625 -16.644531 17.515625 -24.875 L 17.515625 -70.078125 C 17.515625 -78.890625 12.859375 -83.546875 3.546875 -84.046875 L 3.546875 -88.46875 L 33.734375 -88.46875 L 58.984375 -22.078125 L 80.671875 -77.625 C 82.085938 -81.28125 83.066406 -84.894531 83.609375 -88.46875 L 112.46875 -88.46875 L 112.46875 -84.046875 C 107.445312 -83.628906 104.195312 -82.898438 102.71875 -81.859375 C 101.238281 -80.816406 100.5 -78.945312 100.5 -76.25 L 100.5 -12.53125 C 100.5 -9.875 101.328125 -7.972656 102.984375 -6.828125 C 104.648438 -5.679688 107.851562 -4.898438 112.59375 -4.484375 L 112.59375 0 Z M 73.5625 0 "/></g></g></g><g fill="#ef8b00" fill-opacity="1"><g transform="translate(388.851446, 116.467698)"><g><path d="M 52.125 0 L 52.125 -4.484375 C 59.601562 -4.941406 63.34375 -6.128906 63.34375 -8.046875 C 63.34375 -9.285156 63.175781 -10.175781 62.84375 -10.71875 L 39.71875 -70.328125 L 20.390625 -20.078125 C 18.804688 -15.628906 18.015625 -12.257812 18.015625 -9.96875 C 18.015625 -6.894531 22.273438 -5.066406 30.796875 -4.484375 L 30.796875 0 L -2.5625 0 L -2.5625 -4.484375 C 0.894531 -4.734375 3.679688 -5.566406 5.796875 -6.984375 C 7.921875 -8.398438 9.539062 -10.195312 10.65625 -12.375 C 11.78125 -14.5625 15.789062 -24.484375 22.6875 -42.140625 L 41.28125 -89.78125 L 46.203125 -89.78125 L 76 -13.40625 C 78.164062 -7.875 82.488281 -4.898438 88.96875 -4.484375 L 88.96875 0 Z M 52.125 0 "/></g></g></g><g fill="#ef8b00" fill-opacity="1"><g transform="translate(492.367658, 116.467698)"><g><path d="M 96.890625 -84.046875 C 90.816406 -83.253906 86.894531 -81.921875 85.125 -80.046875 C 83.363281 -78.179688 82.484375 -72.78125 82.484375 -63.84375 L 82.484375 0.875 L 77.125 0.875 L 23.5 -71.515625 L 23.5 -25.9375 C 23.5 -20.445312 23.832031 -16.429688 24.5 -13.890625 C 25.164062 -11.359375 25.96875 -9.625 26.90625 -8.6875 C 27.84375 -7.757812 29.648438 -6.867188 32.328125 -6.015625 C 35.003906 -5.160156 37.34375 -4.648438 39.34375 -4.484375 L 39.34375 0 L 2.9375 0 L 2.9375 -4.484375 C 7.875 -5.191406 11.535156 -6.3125 13.921875 -7.84375 C 16.316406 -9.382812 17.515625 -15.144531 17.515625 -25.125 L 17.515625 -68.828125 C 17.515625 -77.429688 12.195312 -82.503906 1.5625 -84.046875 L 1.5625 -88.46875 L 26.6875 -88.46875 L 76.5 -21.078125 L 76.5 -63.09375 C 76.5 -72.570312 75.320312 -78.234375 72.96875 -80.078125 C 70.625 -81.929688 66.601562 -83.253906 60.90625 -84.046875 L 60.90625 -88.46875 L 96.890625 -88.46875 Z M 96.890625 -84.046875 "/></g></g></g><g fill="#ef8b00" fill-opacity="1"><g transform="translate(607.789967, 116.467698)"><g><path d="M 78.8125 0 L 5.359375 0 L 5.359375 -4.484375 C 10.929688 -4.941406 14.429688 -5.660156 15.859375 -6.640625 C 17.296875 -7.617188 18.015625 -9.414062 18.015625 -12.03125 L 18.015625 -75.5625 C 18.015625 -78.46875 16.898438 -80.523438 14.671875 -81.734375 C 12.453125 -82.941406 9.347656 -83.710938 5.359375 -84.046875 L 5.359375 -88.46875 L 73.8125 -88.46875 L 73.8125 -67.140625 L 69.203125 -67.140625 C 68.328125 -70.390625 66.675781 -73.550781 64.25 -76.625 C 61.820312 -79.695312 59.734375 -81.609375 57.984375 -82.359375 C 56.234375 -83.109375 51.972656 -83.484375 45.203125 -83.484375 L 31.296875 -83.484375 L 31.296875 -48.375 L 41.28125 -48.375 C 45.96875 -48.375 49.347656 -49.421875 51.421875 -51.515625 C 53.503906 -53.617188 54.960938 -57.394531 55.796875 -62.84375 L 60.421875 -62.84375 L 60.421875 -28.25 L 55.796875 -28.25 C 55.585938 -30.320312 55.003906 -32.757812 54.046875 -35.5625 C 53.097656 -38.375 51.738281 -40.359375 49.96875 -41.515625 C 48.207031 -42.679688 45.3125 -43.265625 41.28125 -43.265625 L 31.296875 -43.265625 L 31.296875 -16.703125 C 31.296875 -11.640625 32.09375 -8.441406 33.6875 -7.109375 C 35.289062 -5.773438 39.503906 -5.109375 46.328125 -5.109375 L 51.75 -5.109375 C 57.570312 -5.109375 61.5 -5.566406 63.53125 -6.484375 C 65.570312 -7.398438 67.816406 -9.914062 70.265625 -14.03125 C 72.710938 -18.144531 74.625 -22.15625 76 -26.0625 L 80.421875 -26.0625 Z M 78.8125 0 "/></g></g></g><g fill="#000000" fill-opacity="1"><g transform="translate(708.614238, 116.467698)"><g/></g></g></svg>